<svg width="20" height="20" viewBox="0 0 20 20" xmlns="http://www.w3.org/2000/svg">
  <circle cx="10" cy="10" r="9" fill="currentColor"/>
  <path d="M10 2C5.6 2 2 5.6 2 10c0 3.4 2.1 6.3 5.1 7.5-.1-.9-.2-2.3.4-3.3.5-.9 1.6-3.7 1.6-3.7s-.4-.8-.4-2c0-1.9 1.1-3.3 2.4-3.3 1.1 0 1.7.9 1.7 1.9 0 1.1-.7 2.8-1.1 4.3-.3 1.3.7 2.4 2 2.4 2.4 0 4.2-2.5 4.2-6.1 0-3.2-2.3-5.4-5.5-5.4-3.8 0-6 2.7-6 5.5 0 1.1.4 2.2.9 2.9.1.1.1.2.1.3 0 .2-.1.4-.3.4-.1 0-.2-.1-.3-.1-.8-.9-1.3-2.1-1.3-3.4 0-2.6 1.9-5 4.8-5 2.6 0 4.6 1.9 4.6 4.4 0 2.6-1.6 4.7-3.9 4.7-.8 0-1.5-.6-1.3-1.3.3-1.1.8-2.2.8-3 0-.7-.4-1.3-1.2-1.3-1.1 0-1.9 1.1-1.9 2.5 0 .9.3 1.5.3 1.5z" fill="white"/>
</svg> 